<svg xmlns="http://www.w3.org/2000/svg" width="25" height="25.001" viewBox="0 0 25 25.001">
    <defs>
        <style>
            .cls-1{fill:#fff}
        </style>
    </defs>
    <path id="Shape_1" d="M4473.667 3142a1.667 1.667 0 0 1-1.667-1.667v-1.25a.417.417 0 0 1 .417-.417h.834v-11.25a2.084 2.084 0 0 1 2.082-2.083h8.334v.834h-8.334a1.249 1.249 0 0 0-1.249 1.25v11.25h.832v-10.417a1.252 1.252 0 0 1 1.252-1.25h7.5v.833h-7.5a.417.417 0 0 0-.418.417v10.416h5.417a1.164 1.164 0 0 1 1.046.648.336.336 0 0 0 .3.186h2.4a.334.334 0 0 0 .3-.186 1.162 1.162 0 0 1 1.046-.648h5.318V3132h.834v6.667h.833V3132h.834v6.667h.833a.417.417 0 0 1 .417.417v1.25a1.666 1.666 0 0 1-1.666 1.667zm-.833-1.667a.834.834 0 0 0 .833.834h20a.834.834 0 0 0 .833-.834v-.833h-8.235a.334.334 0 0 0-.3.185 1.16 1.16 0 0 1-1.046.648h-2.4a1.163 1.163 0 0 1-1.047-.648.334.334 0 0 0-.3-.185h-8.333zm5-4.167a.416.416 0 0 1-.417-.417v-3.333a.416.416 0 0 1 .417-.417h11.666a.416.416 0 0 1 .417.417v3.333a.416.416 0 0 1-.417.417zm.417-.833h10.833v-2.5h-10.834zm5.831-.834v-.83h.831v.83zm-1.66 0v-.83h.831v.83zm-1.669 0v-.83h.83v.83zm-1.67 0v-.83h.83v.83zm6.821-3.333a1.4 1.4 0 0 1-1.4-1.4v-5.115a1.4 1.4 0 0 1 1.25-1.386V3122a5 5 0 1 1 10 0v1.265a1.4 1.4 0 0 1 1.25 1.386v5.115a1.4 1.4 0 0 1-1.4 1.4zm-.569-6.515v5.115a.57.57 0 0 0 .569.567h9.7a.567.567 0 0 0 .566-.567v-5.115a.567.567 0 0 0-.566-.568h-9.7a.57.57 0 0 0-.571.568zm8.751-2.651v1.25h.833V3122a4.167 4.167 0 1 0-8.333 0v1.25h.833V3122a3.334 3.334 0 0 1 6.668 0zm-5.834 0v1.25h5V3122a2.5 2.5 0 1 0-5 0zm2.083 7.083v-.911a1.249 1.249 0 1 1 .833 0v.911zm0-2.083a.417.417 0 1 0 .417-.417.416.416 0 0 0-.419.417zm-10.833-2.5v-.831h.83v.831zm0-1.67v-.83h.83v.83zm0-1.669v-.831h.83v.831zm5-1.66v-.831h.831v.831zm-1.669 0v-.831h.83v.831zm-1.66 0v-.831h.83v.831zm-1.67 0v-.831h.83v.831z" class="cls-1" data-name="Shape 1" transform="translate(-4472 -3117)"/>
</svg>
