<svg xmlns="http://www.w3.org/2000/svg" width="23" height="25" viewBox="0 0 23 25">
    <defs>
        <style>
            .cls-1{fill:#5082a5}
        </style>
    </defs>
    <path id="Shape_1" d="M4484.545 3272.751v-.876h-4.7a3.223 3.223 0 0 1-2.262-1.012.981.981 0 0 1-.329-.729l-.023-6.07a.522.522 0 0 1 .521-.522.522.522 0 0 1 .522.519l.021 6.037a2.18 2.18 0 0 0 1.547.737h4.7v-16.048a2.248 2.248 0 0 1 1.37-2.068l3.924-1.676h-10a1.568 1.568 0 0 0-1.568 1.563v5.207a.523.523 0 0 1-1.046 0v-5.213a2.613 2.613 0 0 1 2.614-2.6h12.545a.524.524 0 0 1 .119.024c.079-.008.158-.024.238-.024a2.255 2.255 0 0 1 2.256 2.25v17.965a2.246 2.246 0 0 1-1.367 2.068l-5.94 2.536a2.232 2.232 0 0 1-.889.182 2.257 2.257 0 0 1-2.253-2.25zm7.721-21.612l-5.939 2.537a1.2 1.2 0 0 0-.735 1.109v17.966a1.211 1.211 0 0 0 1.211 1.207 1.187 1.187 0 0 0 .477-.1l5.939-2.536a1.205 1.205 0 0 0 .736-1.11v-17.962a1.212 1.212 0 0 0-1.212-1.208 1.2 1.2 0 0 0-.477.097zm-5.106 13.45a.52.52 0 0 1-.52-.52v-2.089a.52.52 0 0 1 .52-.52h.01a.52.52 0 0 1 .52.52v2.089a.519.519 0 0 1-.52.52zm-7.689-.158a.52.52 0 0 1 0-.737l2.245-2.237h-9.193a.521.521 0 1 1 0-1.041h9.19l-2.243-2.236a.522.522 0 1 1 .739-.737l3.133 3.123a.555.555 0 0 1 .118.174.425.425 0 0 1 .017.086.436.436 0 0 1 .024.112.6.6 0 0 1-.018.086.662.662 0 0 1-.022.113.528.528 0 0 1-.114.169l-3.136 3.126a.527.527 0 0 1-.739 0z" class="cls-1" data-name="Shape 1" transform="translate(-4472 -3250)"/>
</svg>
