<svg xmlns="http://www.w3.org/2000/svg" width="25" height="25" viewBox="0 0 25 25">
    <defs>
        <style>
            .cls-1{fill:#5082a5}
        </style>
    </defs>
    <path id="Shape_1" d="M4493.666 980a1.667 1.667 0 0 1-1.667-1.666v-1.25a.416.416 0 0 1 .417-.416h.834v-11.25a2.084 2.084 0 0 1 2.083-2.084h8.333v.833h-8.333a1.251 1.251 0 0 0-1.25 1.25v11.25h.833v-10.416a1.251 1.251 0 0 1 1.25-1.25h7.5v.833h-7.5a.417.417 0 0 0-.416.417v10.417h5.417a1.161 1.161 0 0 1 1.046.646.336.336 0 0 0 .3.187h2.4a.333.333 0 0 0 .3-.187 1.164 1.164 0 0 1 1.046-.646h5.318V970h.834v6.668h.832V970h.834v6.668h.833a.417.417 0 0 1 .417.416v1.25a1.666 1.666 0 0 1-1.667 1.666zm-.833-1.666a.833.833 0 0 0 .833.833h20a.834.834 0 0 0 .833-.833v-.834h-8.236a.334.334 0 0 0-.3.186 1.162 1.162 0 0 1-1.046.647h-2.4a1.165 1.165 0 0 1-1.046-.647.333.333 0 0 0-.3-.186h-8.333zm5-4.167a.416.416 0 0 1-.416-.416v-3.334a.417.417 0 0 1 .416-.417h11.667a.417.417 0 0 1 .417.417v3.334a.416.416 0 0 1-.417.416zm.417-.833h10.833v-2.5h-10.833zm5.831-.833v-.83h.83v.83zm-1.661 0v-.83h.831v.83zm-1.669 0v-.83h.83v.83zm-1.67 0v-.83h.83v.83zm6.821-3.334a1.4 1.4 0 0 1-1.4-1.4v-5.115a1.4 1.4 0 0 1 1.25-1.385V960a5 5 0 0 1 10 0v1.266a1.4 1.4 0 0 1 1.249 1.385v5.115a1.4 1.4 0 0 1-1.4 1.4zm-.568-6.515v5.115a.568.568 0 0 0 .568.567h9.7a.568.568 0 0 0 .568-.567v-5.115a.568.568 0 0 0-.568-.568h-9.7a.568.568 0 0 0-.569.567zm8.75-2.652v1.25h.833V960a4.167 4.167 0 0 0-8.333 0v1.25h.833V960a3.333 3.333 0 0 1 6.667 0zm-5.833 0v1.25h5V960a2.5 2.5 0 1 0-5 0zm2.083 7.084v-.91a1.249 1.249 0 1 1 .833 0v.91zm0-2.084a.417.417 0 1 0 .416-.417.416.416 0 0 0-.417.417zm-10.833-2.5v-.831h.83v.831zm0-1.671V960h.83v.83zm0-1.67v-.83h.83v.83zm5-1.66v-.83h.83v.83zm-1.67 0v-.83h.83v.83zm-1.66 0v-.83h.83v.83zm-1.67 0v-.83h.83v.83z" class="cls-1" data-name="Shape 1" transform="translate(-4492 -955)"/>
</svg>
