<svg xmlns="http://www.w3.org/2000/svg" width="23" height="25" viewBox="0 0 23 25">
    <defs>
        <style>
            .cls-1{fill:#fff}
        </style>
    </defs>
    <path id="Shape_1" d="M6209.544 1110.751v-.876h-4.7a3.221 3.221 0 0 1-2.262-1.012.981.981 0 0 1-.328-.729l-.023-6.071a.519.519 0 0 1 .52-.521.519.519 0 0 1 .521.518l.023 6.036a2.172 2.172 0 0 0 1.545.737h4.7v-16.049a2.247 2.247 0 0 1 1.369-2.067l3.926-1.677h-10a1.568 1.568 0 0 0-1.569 1.563v5.208a.522.522 0 0 1-1.044 0v-5.211a2.611 2.611 0 0 1 2.613-2.6h12.546a.5.5 0 0 1 .119.023 2.352 2.352 0 0 1 .237-.023 2.256 2.256 0 0 1 2.257 2.248v17.966a2.247 2.247 0 0 1-1.369 2.068l-5.939 2.537a2.261 2.261 0 0 1-3.147-2.068zm7.722-21.611l-5.941 2.537a1.2 1.2 0 0 0-.735 1.108v17.966a1.212 1.212 0 0 0 1.213 1.208 1.182 1.182 0 0 0 .476-.1l5.939-2.537a1.206 1.206 0 0 0 .737-1.11v-17.966a1.212 1.212 0 0 0-1.213-1.207 1.182 1.182 0 0 0-.475.101zm-5.106 13.45a.52.52 0 0 1-.52-.52v-2.09a.52.52 0 0 1 .52-.52h.009a.52.52 0 0 1 .52.52v2.09a.52.52 0 0 1-.52.52zm-7.689-.158a.519.519 0 0 1 0-.737l2.245-2.237h-9.193a.521.521 0 1 1 0-1.041h9.189l-2.241-2.235a.522.522 0 0 1 .738-.737l3.133 3.122a.554.554 0 0 1 .117.173.359.359 0 0 1 .017.086.441.441 0 0 1 .023.111.576.576 0 0 1-.017.087.7.7 0 0 1-.023.112.523.523 0 0 1-.114.17l-3.136 3.125a.526.526 0 0 1-.738 0z" class="cls-1" data-name="Shape 1" transform="translate(-6197 -1088.001)"/>
</svg>
